<svg viewBox="0 0 20 20" fill="none" xmlns="http://www.w3.org/2000/svg">
<path d="M8.75 15.625C7.39026 15.625 6.06105 15.2218 4.93046 14.4664C3.79987 13.7109 2.91868 12.6372 2.39833 11.381C1.87798 10.1247 1.74183 8.74238 2.0071 7.40876C2.27238 6.07514 2.92716 4.85013 3.88864 3.88864C4.85013 2.92716 6.07514 2.27238 7.40876 2.0071C8.74238 1.74183 10.1247 1.87798 11.381 2.39833C12.6372 2.91868 13.7109 3.79987 14.4664 4.93046C15.2218 6.06105 15.625 7.39026 15.625 8.75C15.625 9.65284 15.4472 10.5468 15.1017 11.381C14.7562 12.2151 14.2498 12.973 13.6114 13.6114C12.973 14.2498 12.2151 14.7562 11.381 15.1017C10.5468 15.4472 9.65284 15.625 8.75 15.625ZM8.75 3.125C7.63748 3.125 6.54995 3.4549 5.62492 4.07299C4.69989 4.69107 3.97892 5.56957 3.55318 6.59741C3.12744 7.62524 3.01604 8.75624 3.23309 9.84739C3.45013 10.9385 3.98586 11.9408 4.77253 12.7275C5.5592 13.5141 6.56148 14.0499 7.65262 14.2669C8.74376 14.484 9.87476 14.3726 10.9026 13.9468C11.9304 13.5211 12.8089 12.8001 13.427 11.8751C14.0451 10.9501 14.375 9.86252 14.375 8.75C14.375 7.25816 13.7824 5.82742 12.7275 4.77253C11.6726 3.71764 10.2418 3.125 8.75 3.125Z"/>
<path d="M13.608 12.7238L12.7241 13.6077L17.0552 17.9387L17.939 17.0548L13.608 12.7238Z"/>
</svg>
