<svg viewBox="0 0 20 20" xmlns="http://www.w3.org/2000/svg">
<g>
<path d="M4.16659 15.5H15.8333C16.0173 15.5 16.1666 15.6492 16.1666 15.8333C16.1666 16.0174 16.0173 16.1667 15.8333 16.1667H4.16659C3.98249 16.1667 3.83325 16.0174 3.83325 15.8333C3.83325 15.6492 3.98249 15.5 4.16659 15.5Z"/>
<path d="M3.83325 15.8333V14.1667C3.83325 13.9826 3.98249 13.8333 4.16659 13.8333C4.35068 13.8333 4.49992 13.9826 4.49992 14.1667V15.8333C4.49992 16.0174 4.35068 16.1667 4.16659 16.1667C3.98249 16.1667 3.83325 16.0174 3.83325 15.8333Z"/>
<path d="M15.5 15.8333V14.1667C15.5 13.9826 15.6492 13.8333 15.8333 13.8333C16.0174 13.8333 16.1667 13.9826 16.1667 14.1667V15.8333C16.1667 16.0174 16.0174 16.1667 15.8333 16.1667C15.6492 16.1667 15.5 16.0174 15.5 15.8333Z"/>
<path d="M10.0001 12L9.99632 12C9.92752 12.0005 9.86024 11.9797 9.80373 11.9405L6.47275 9.59217C6.4726 9.59207 6.47245 9.59196 6.47229 9.59185C6.40068 9.54087 6.3521 9.46365 6.33714 9.37701C6.32215 9.29019 6.34214 9.20096 6.39275 9.12884L6.39293 9.12858C6.41819 9.09253 6.45034 9.06184 6.48753 9.03828C6.52472 9.01473 6.5662 8.99877 6.60959 8.99133C6.65298 8.98389 6.69741 8.98512 6.74032 8.99495C6.78323 9.00478 6.82377 9.023 6.8596 9.04858L6.85958 9.0486L6.86371 9.05149L9.71371 11.0432L10.0111 11.251L10.3009 11.0328L13.1335 8.89998C13.1335 8.89992 13.1336 8.89985 13.1337 8.89979C13.2044 8.84688 13.2932 8.82418 13.3806 8.83667C13.4681 8.84917 13.5471 8.89592 13.6001 8.96665L13.9995 8.66711L13.6001 8.96665C13.6532 9.03737 13.6759 9.12627 13.6634 9.21379C13.6509 9.30131 13.6042 9.38027 13.5335 9.43332L10.2001 11.9333C10.1424 11.9766 10.0722 12 10.0001 12Z"/>
<path d="M10.0001 10.3333C9.91168 10.3333 9.82689 10.2982 9.76438 10.2357C9.70187 10.1732 9.66675 10.0884 9.66675 10V3.33333C9.66675 3.24493 9.70187 3.16014 9.76438 3.09763C9.82689 3.03512 9.91168 3 10.0001 3C10.0885 3 10.1733 3.03512 10.2358 3.09763C10.2983 3.16014 10.3334 3.24493 10.3334 3.33333V10C10.3334 10.0884 10.2983 10.1732 10.2358 10.2357C10.1733 10.2982 10.0885 10.3333 10.0001 10.3333Z"/>
</g>
</svg>
