<svg viewBox="0 0 200 200" xmlns="http://www.w3.org/2000/svg">
<path d="M129.688 96.875C129.688 99.4375 131.813 101.562 134.375 101.562C136.937 101.562 139.062 99.4375 139.062 96.875C139.062 94.3125 136.937 92.1875 134.375 92.1875C131.813 92.1875 129.688 94.3125 129.688 96.875Z" stroke-miterlimit="10" stroke-linecap="round" stroke-linejoin="round"/>
<path d="M70.3125 96.875C70.3125 99.4375 68.1875 101.562 65.625 101.562C63.0625 101.562 60.9375 99.4375 60.9375 96.875C60.9375 94.3125 63.0625 92.1875 65.625 92.1875C68.1875 92.1875 70.3125 94.3125 70.3125 96.875Z" stroke-miterlimit="10" stroke-linecap="round" stroke-linejoin="round"/>
<path d="M134.375 92.1875C136.937 92.1875 139.062 94.3125 139.062 96.875C139.062 99.4375 136.937 101.562 134.375 101.562C131.813 101.562 129.688 99.4375 129.688 96.875C129.688 94.3125 131.813 92.1875 134.375 92.1875Z"/>
<path d="M65.625 92.1875C68.1875 92.1875 70.3125 94.3125 70.3125 96.875C70.3125 99.4375 68.1875 101.562 65.625 101.562C63.0625 101.562 60.9375 99.4375 60.9375 96.875C60.9375 94.3125 63.0625 92.1875 65.625 92.1875Z"/>
<path d="M134.375 9.375H28.125V190.625H171.875V46.875" stroke-miterlimit="10" stroke-linecap="round" stroke-linejoin="round"/>
<path d="M134.375 9.375L171.744 46.875H134.375V25" stroke-miterlimit="10" stroke-linecap="round" stroke-linejoin="round"/>
<path d="M90.625 115.625C90.625 110.438 94.8125 106.25 100 106.25C105.187 106.25 109.375 110.438 109.375 115.625" stroke-miterlimit="10" stroke-linecap="round" stroke-linejoin="round"/>
<path d="M134.375 9.375H28.125V190.625H171.875V46.875" stroke-miterlimit="10" stroke-linecap="round" stroke-linejoin="round"/>
<path d="M134.375 9.375L171.744 46.875H134.375V25" stroke-miterlimit="10" stroke-linecap="round" stroke-linejoin="round"/>
<path d="M90.625 115.625C90.625 110.438 94.8125 106.25 100 106.25C105.187 106.25 109.375 110.438 109.375 115.625" stroke-miterlimit="10" stroke-linecap="round" stroke-linejoin="round"/>
<path d="M129.688 96.875C129.688 99.4375 131.813 101.562 134.375 101.562C136.937 101.562 139.062 99.4375 139.062 96.875C139.062 94.3125 136.937 92.1875 134.375 92.1875C131.813 92.1875 129.688 94.3125 129.688 96.875Z" stroke-miterlimit="10" stroke-linecap="round" stroke-linejoin="round"/>
<path d="M70.3125 96.875C70.3125 99.4375 68.1875 101.562 65.625 101.562C63.0625 101.562 60.9375 99.4375 60.9375 96.875C60.9375 94.3125 63.0625 92.1875 65.625 92.1875C68.1875 92.1875 70.3125 94.3125 70.3125 96.875Z" stroke-miterlimit="10" stroke-linecap="round" stroke-linejoin="round"/>
</svg>
