<svg width="400" height="404" viewBox="0 0 400 404" fill="none" xmlns="http://www.w3.org/2000/svg">
<circle cx="200" cy="200" r="187.5" fill="#07010C" stroke="#6C3EB8" stroke-width="25"/>
<circle cx="200" cy="200" r="137.5" fill="#07010C" stroke="#6C3EB8" stroke-width="25"/>
<circle cx="200" cy="200" r="87.5" fill="#07010C" stroke="#6C3EB8" stroke-width="25"/>
<circle cx="200" cy="200" r="37.5" fill="#07010C" stroke="#6C3EB8" stroke-width="25"/>
<path d="M188.186 152.549C200.188 156.682 210.401 159.118 218.825 159.855C224.072 139.831 221.332 122.662 210.604 108.347C202.262 122.978 194.789 137.712 188.186 152.549ZM148.223 69.4583C156.192 51.5513 165.458 35.0745 176.021 20.0278L322.953 70.6271C304.385 91.768 281.504 103.851 254.308 106.876C271.493 120.858 283.405 136.171 290.043 152.814C281.396 168.128 270.657 182.426 257.826 195.708L124.661 149.849C128.151 123.713 136.005 96.9157 148.223 69.4583ZM220.577 91.4249C230.212 92.1861 239.95 91.1144 249.791 88.2097C259.633 85.3051 267.925 80.3921 274.669 73.4706C260.55 68.6082 248.888 65.0839 239.684 62.8976C233.164 72.0597 226.795 81.5688 220.577 91.4249Z" fill="#FCFCFC"/>
<g filter="url(#filter0_d_389_3)">
<path d="M304.438 317.906L324.485 326.56C326.361 327.233 327.833 327.679 328.901 327.9L311.094 342.996L309.145 342.298C306.403 341.314 302.795 339.206 298.322 335.974C293.906 332.601 290.616 330.525 288.451 329.749C282.822 327.73 276.801 329.721 270.388 335.721C266.371 343.557 263.408 349.819 261.5 354.505C259.592 359.191 257.684 364.285 255.775 369.785L208.795 352.936C213.454 333.775 219.715 314.537 227.579 295.223C235.5 275.767 243.304 259.443 250.991 246.25L366.601 287.713C357.758 302.118 351.084 312.012 346.577 317.394L322.761 310.074C325.506 306.989 327.398 304.169 328.439 301.613C331.215 294.796 327.334 289.498 316.798 285.719C312.179 284.063 307.777 282.891 303.591 282.204C295.27 293.704 287.41 305.695 280.012 318.178C287.925 314.994 296.067 314.903 304.438 317.906Z" fill="white"/>
</g>
<path d="M158.729 213.838C152.534 213.317 145.916 213.284 138.878 213.74C131.992 214.185 125.297 215.079 118.793 216.422C123.501 223.184 128.867 228.598 134.892 232.664C140.917 236.729 148.395 240.701 157.328 244.578C166.4 248.293 173.765 251.811 179.421 255.132C185.23 258.444 191.769 264.089 199.038 272.069C206.307 280.048 211.159 288.568 213.594 297.628C207.026 307.578 197.993 316.536 186.494 324.5C175.007 332.617 163.014 338.309 150.515 341.576C141.883 341.366 130.819 339.624 117.321 336.349C103.989 333.217 94.0335 331.864 87.4539 332.29C80.8743 332.715 74.4639 335.204 68.2227 339.756C70.3378 331.784 74.0497 321.711 79.3583 309.538L81.1944 309.42C90.9873 308.786 100.293 309.72 109.113 312.222C118.085 314.715 126.216 317.261 133.505 319.862C140.948 322.453 146.811 323.61 151.095 323.333C155.533 323.046 158.721 322.533 160.66 321.793C159.833 311.707 156.013 303.581 149.201 297.415C145.546 294.118 142.42 291.632 139.821 289.957C137.363 288.118 133.548 285.677 128.376 282.631L124.248 280.133C113.254 273.624 104.09 266.919 96.7561 260.019C89.4094 252.966 83.7611 244.114 79.811 233.462C83.8177 222.295 87.8669 212.584 91.9587 204.331C106.207 199.876 121.134 197.143 136.742 196.134L146.841 195.48C160 194.629 175.222 195.488 192.507 198.057C190.886 208.301 188.648 217.587 185.793 225.914C173.015 227.663 163.107 228.765 156.068 229.22C157.157 225.616 158.044 220.489 158.729 213.838Z" fill="white"/>
<defs>
<filter id="filter0_d_389_3" x="200.682" y="245.163" width="169.919" height="156.847" filterUnits="userSpaceOnUse" color-interpolation-filters="sRGB">
<feFlood flood-opacity="0" result="BackgroundImageFix"/>
<feColorMatrix in="SourceAlpha" type="matrix" values="0 0 0 0 0 0 0 0 0 0 0 0 0 0 0 0 0 0 127 0" result="hardAlpha"/>
<feOffset dy="4"/>
<feGaussianBlur stdDeviation="2"/>
<feComposite in2="hardAlpha" operator="out"/>
<feColorMatrix type="matrix" values="0 0 0 0 0 0 0 0 0 0 0 0 0 0 0 0 0 0 0.25 0"/>
<feBlend mode="normal" in2="BackgroundImageFix" result="effect1_dropShadow_389_3"/>
<feBlend mode="normal" in="SourceGraphic" in2="effect1_dropShadow_389_3" result="shape"/>
</filter>
</defs>
</svg>
