<svg viewBox="0 0 15 15" fill="none" xmlns="http://www.w3.org/2000/svg">
<rect width="15" height="15" rx="3"/>
<path d="M8.32114 7.43751L10.5305 5.22751C10.5902 5.16985 10.6378 5.10089 10.6706 5.02464C10.7033 4.94838 10.7206 4.86637 10.7213 4.78338C10.722 4.7004 10.7062 4.6181 10.6748 4.54129C10.6433 4.46448 10.5969 4.3947 10.5383 4.33601C10.4796 4.27733 10.4098 4.23092 10.333 4.1995C10.2562 4.16807 10.1739 4.15226 10.0909 4.15298C10.0079 4.1537 9.92589 4.17094 9.84963 4.2037C9.77338 4.23645 9.70442 4.28407 9.64676 4.34376L7.43676 6.55313L5.22739 4.34376C5.16973 4.28407 5.10077 4.23645 5.02451 4.2037C4.94826 4.17094 4.86625 4.1537 4.78326 4.15298C4.70028 4.15226 4.61798 4.16807 4.54117 4.1995C4.46436 4.23092 4.39457 4.27733 4.33589 4.33601C4.27721 4.3947 4.2308 4.46448 4.19937 4.54129C4.16795 4.6181 4.15213 4.7004 4.15286 4.78338C4.15358 4.86637 4.17082 4.94838 4.20357 5.02464C4.23633 5.10089 4.28394 5.16985 4.34364 5.22751L6.55301 7.43688L4.34364 9.64688C4.28394 9.70454 4.23633 9.7735 4.20357 9.84976C4.17082 9.92601 4.15358 10.008 4.15286 10.091C4.15213 10.174 4.16795 10.2563 4.19937 10.3331C4.2308 10.4099 4.27721 10.4797 4.33589 10.5384C4.39457 10.5971 4.46436 10.6435 4.54117 10.6749C4.61798 10.7063 4.70028 10.7221 4.78326 10.7214C4.86625 10.7207 4.94826 10.7035 5.02451 10.6707C5.10077 10.6379 5.16973 10.5903 5.22739 10.5306L7.43676 8.32126L9.64676 10.5306C9.70442 10.5903 9.77338 10.6379 9.84963 10.6707C9.92589 10.7035 10.0079 10.7207 10.0909 10.7214C10.1739 10.7221 10.2562 10.7063 10.333 10.6749C10.4098 10.6435 10.4796 10.5971 10.5383 10.5384C10.5969 10.4797 10.6433 10.4099 10.6748 10.3331C10.7062 10.2563 10.722 10.174 10.7213 10.091C10.7206 10.008 10.7033 9.92601 10.6706 9.84976C10.6378 9.7735 10.5902 9.70454 10.5305 9.64688L8.32114 7.43751Z" fill="#717171"/>
</svg>
